<svg width="194" height="228" viewBox="0 0 194 228" fill="none" xmlns="http://www.w3.org/2000/svg">
<circle cx="96.8" cy="131.249" r="86.8492" fill="url(#paint0_linear_3194_4966)" stroke="#FFC04A" stroke-width="11.9016"/>
<mask id="path-2-outside-1_3194_4966" maskUnits="userSpaceOnUse" x="0.00195312" y="0" width="194" height="228" fill="black">
<rect fill="white" x="0.00195312" width="194" height="228"/>
<path fill-rule="evenodd" clip-rule="evenodd" d="M89.5823 38.7257C86.7029 38.9472 83.8604 39.3002 81.0607 39.7786C79.4186 36.9859 78.4769 33.7319 78.4769 30.258C78.4769 19.8693 86.8986 11.4476 97.2873 11.4476C107.676 11.4476 116.098 19.8693 116.098 30.258C116.098 33.7962 115.121 37.1063 113.422 39.9331C110.486 39.4023 107.502 39.0096 104.478 38.7619V35.1727C104.478 34.6585 104.061 34.2417 103.547 34.2417H90.5132C89.9991 34.2417 89.5823 34.6585 89.5823 35.1727V38.7257ZM71.0293 30.258C71.0293 34.2407 71.916 38.0163 73.5027 41.3982C33.5278 51.7345 4.00195 88.0437 4.00195 131.249C4.00195 182.501 45.5499 224.049 96.802 224.049C148.054 224.049 189.602 182.501 189.602 131.249C189.602 88.3551 160.5 52.2582 120.964 41.6257C122.618 38.186 123.545 34.3303 123.545 30.258C123.545 15.7561 111.789 4 97.2873 4C82.7854 4 71.0293 15.7561 71.0293 30.258Z"/>
</mask>
<path fill-rule="evenodd" clip-rule="evenodd" d="M89.5823 38.7257C86.7029 38.9472 83.8604 39.3002 81.0607 39.7786C79.4186 36.9859 78.4769 33.7319 78.4769 30.258C78.4769 19.8693 86.8986 11.4476 97.2873 11.4476C107.676 11.4476 116.098 19.8693 116.098 30.258C116.098 33.7962 115.121 37.1063 113.422 39.9331C110.486 39.4023 107.502 39.0096 104.478 38.7619V35.1727C104.478 34.6585 104.061 34.2417 103.547 34.2417H90.5132C89.9991 34.2417 89.5823 34.6585 89.5823 35.1727V38.7257ZM71.0293 30.258C71.0293 34.2407 71.916 38.0163 73.5027 41.3982C33.5278 51.7345 4.00195 88.0437 4.00195 131.249C4.00195 182.501 45.5499 224.049 96.802 224.049C148.054 224.049 189.602 182.501 189.602 131.249C189.602 88.3551 160.5 52.2582 120.964 41.6257C122.618 38.186 123.545 34.3303 123.545 30.258C123.545 15.7561 111.789 4 97.2873 4C82.7854 4 71.0293 15.7561 71.0293 30.258Z" fill="#FFC04A"/>
<path d="M81.0607 39.7786L77.8507 41.6661L79.1538 43.8822L81.6879 43.4492L81.0607 39.7786ZM89.5823 38.7257L89.868 42.4385L93.3061 42.174V38.7257H89.5823ZM113.422 39.9331L112.76 43.5975L115.29 44.055L116.614 41.8512L113.422 39.9331ZM104.478 38.7619H100.754V42.1933L104.174 42.4733L104.478 38.7619ZM73.5027 41.3982L74.4349 45.0035L78.7804 43.8799L76.8739 39.8165L73.5027 41.3982ZM120.964 41.6257L117.608 40.0116L115.663 44.0562L119.997 45.2218L120.964 41.6257ZM81.6879 43.4492C84.3748 42.9901 87.1034 42.6513 89.868 42.4385L89.2966 35.0128C86.3025 35.2432 83.346 35.6103 80.4335 36.108L81.6879 43.4492ZM74.7531 30.258C74.7531 34.4136 75.8814 38.3169 77.8507 41.6661L84.2707 37.8911C82.9559 35.6549 82.2007 33.0503 82.2007 30.258H74.7531ZM97.2873 7.72382C84.842 7.72382 74.7531 17.8127 74.7531 30.258H82.2007C82.2007 21.9259 88.9552 15.1714 97.2873 15.1714V7.72382ZM119.822 30.258C119.822 17.8127 109.733 7.72382 97.2873 7.72382V15.1714C105.619 15.1714 112.374 21.9259 112.374 30.258H119.822ZM116.614 41.8512C118.651 38.4613 119.822 34.4907 119.822 30.258H112.374C112.374 33.1018 111.591 35.7512 110.23 38.015L116.614 41.8512ZM104.174 42.4733C107.078 42.7111 109.942 43.0881 112.76 43.5975L114.085 36.2687C111.031 35.7165 107.927 35.308 104.781 35.0505L104.174 42.4733ZM100.754 35.1727V38.7619H108.201V35.1727H100.754ZM103.547 37.9655C102.004 37.9655 100.754 36.7151 100.754 35.1727H108.201C108.201 32.6019 106.117 30.5179 103.547 30.5179V37.9655ZM90.5132 37.9655H103.547V30.5179H90.5132V37.9655ZM93.3061 35.1727C93.3061 36.7151 92.0557 37.9655 90.5132 37.9655V30.5179C87.9425 30.5179 85.8584 32.6019 85.8584 35.1727H93.3061ZM93.3061 38.7257V35.1727H85.8584V38.7257H93.3061ZM76.8739 39.8165C75.5146 36.9193 74.7531 33.6827 74.7531 30.258H67.3055C67.3055 34.7987 68.3174 39.1134 70.1315 42.9799L76.8739 39.8165ZM7.72577 131.249C7.72577 89.7825 36.0632 54.9252 74.4349 45.0035L72.5705 37.793C30.9924 48.5438 0.278137 86.3048 0.278137 131.249H7.72577ZM96.802 220.325C47.6065 220.325 7.72577 180.444 7.72577 131.249H0.278137C0.278137 184.558 43.4933 227.773 96.802 227.773V220.325ZM185.878 131.249C185.878 180.444 145.997 220.325 96.802 220.325V227.773C150.111 227.773 193.326 184.558 193.326 131.249H185.878ZM119.997 45.2218C157.948 55.4279 185.878 90.0815 185.878 131.249H193.326C193.326 86.6286 163.052 49.0884 121.931 38.0297L119.997 45.2218ZM119.822 30.258C119.822 33.7596 119.026 37.0647 117.608 40.0116L124.32 43.2399C126.211 39.3074 127.269 34.901 127.269 30.258H119.822ZM97.2873 7.72382C109.733 7.72382 119.822 17.8127 119.822 30.258H127.269C127.269 13.6995 113.846 0.276184 97.2873 0.276184V7.72382ZM74.7531 30.258C74.7531 17.8127 84.842 7.72382 97.2873 7.72382V0.276184C80.7288 0.276184 67.3055 13.6995 67.3055 30.258H74.7531Z" fill="#3C5159" mask="url(#path-2-outside-1_3194_4966)"/>
<circle cx="96.9619" cy="131.412" r="74.3932" fill="#FF4D82" stroke="#3C5159" stroke-width="0.465477"/>
<circle cx="96.8643" cy="131.977" r="75.6586" stroke="url(#paint1_linear_3194_4966)" stroke-width="10.6107"/>
<circle cx="96.9609" cy="132.017" r="72.1746" fill="#3CBBE6" stroke="#3C5159" stroke-width="3.69365"/>
<mask id="mask0_3194_4966" style="mask-type:alpha" maskUnits="userSpaceOnUse" x="50" y="84" width="106" height="106">
<path opacity="0.5" d="M154.243 85.458L51.8379 187.863" stroke="#FBFCF1" stroke-width="3.72382"/>
</mask>
<g mask="url(#mask0_3194_4966)">
<circle cx="97.0956" cy="132.064" r="70.287" fill="#FBFCF1"/>
</g>
<mask id="mask1_3194_4966" style="mask-type:alpha" maskUnits="userSpaceOnUse" x="58" y="94" width="113" height="115">
<path opacity="0.5" d="M165.415 99.6553L63.9414 202.991" stroke="#FBFCF1" stroke-width="14.8953"/>
</mask>
<g mask="url(#mask1_3194_4966)">
<circle cx="97.0956" cy="132.006" r="70.287" fill="#FBFCF1"/>
</g>
<defs>
<linearGradient id="paint0_linear_3194_4966" x1="-7.63693" y1="51.4785" x2="399.888" y2="311.68" gradientUnits="userSpaceOnUse">
<stop stop-color="#FFC04A"/>
<stop offset="1" stop-color="#99732C"/>
</linearGradient>
<linearGradient id="paint1_linear_3194_4966" x1="5.74768" y1="62.3811" x2="361.295" y2="289.396" gradientUnits="userSpaceOnUse">
<stop stop-color="#FFC04A"/>
<stop offset="1" stop-color="#99732C"/>
</linearGradient>
</defs>
</svg>
