<svg width="194" height="228" viewBox="0 0 194 228" fill="none" xmlns="http://www.w3.org/2000/svg">
<g clip-path="url(#clip0_3194_4938)">
<path d="M96.9156 218.098C144.881 218.098 183.765 179.215 183.765 131.249C183.765 83.2836 144.881 44.3999 96.9156 44.3999C48.9501 44.3999 10.0664 83.2836 10.0664 131.249C10.0664 179.215 48.9501 218.098 96.9156 218.098Z" fill="url(#paint0_linear_3194_4938)" stroke="#FFC04A" stroke-width="11.9016"/>
<path fill-rule="evenodd" clip-rule="evenodd" d="M89.6975 38.7257C86.8182 38.9472 83.9757 39.3002 81.1759 39.7786C79.5339 36.9859 78.5922 33.7319 78.5922 30.258C78.5922 19.8693 87.0139 11.4476 97.4026 11.4476C107.791 11.4476 116.213 19.8693 116.213 30.258C116.213 33.7962 115.236 37.1063 113.537 39.9331C110.602 39.4023 107.618 39.0096 104.593 38.7619V35.1727C104.593 34.6585 104.176 34.2417 103.662 34.2417H90.6284C90.1143 34.2417 89.6975 34.6585 89.6975 35.1727V38.7257ZM71.1445 30.258C71.1445 34.2407 72.0312 38.0163 73.6179 41.3982C33.643 51.7345 4.11719 88.0437 4.11719 131.249C4.11719 182.501 45.6652 224.049 96.9172 224.049C148.169 224.049 189.717 182.501 189.717 131.249C189.717 88.3551 160.615 52.2582 121.079 41.6257C122.734 38.186 123.661 34.3303 123.661 30.258C123.661 15.7561 111.904 4 97.4026 4C82.9007 4 71.1445 15.7561 71.1445 30.258Z" fill="#FFC04A"/>
<mask id="mask0_3194_4938" style="mask-type:luminance" maskUnits="userSpaceOnUse" x="0" y="0" width="195" height="228">
<path d="M194.117 0H0.117188V228H194.117V0Z" fill="white"/>
<path fill-rule="evenodd" clip-rule="evenodd" d="M89.6975 38.7257C86.8182 38.9472 83.9757 39.3002 81.1759 39.7786C79.5339 36.9859 78.5922 33.7319 78.5922 30.258C78.5922 19.8693 87.0139 11.4476 97.4026 11.4476C107.791 11.4476 116.213 19.8693 116.213 30.258C116.213 33.7962 115.236 37.1063 113.537 39.9331C110.602 39.4023 107.618 39.0096 104.593 38.7619V35.1727C104.593 34.6585 104.176 34.2417 103.662 34.2417H90.6284C90.1143 34.2417 89.6975 34.6585 89.6975 35.1727V38.7257ZM71.1445 30.258C71.1445 34.2407 72.0312 38.0163 73.6179 41.3982C33.643 51.7345 4.11719 88.0437 4.11719 131.249C4.11719 182.501 45.6652 224.049 96.9172 224.049C148.169 224.049 189.717 182.501 189.717 131.249C189.717 88.3551 160.615 52.2582 121.079 41.6257C122.734 38.186 123.661 34.3303 123.661 30.258C123.661 15.7561 111.904 4 97.4026 4C82.9007 4 71.1445 15.7561 71.1445 30.258Z" fill="black"/>
</mask>
<g mask="url(#mask0_3194_4938)">
<path d="M81.1751 39.7788L77.9651 41.6663L79.2682 43.8824L81.8023 43.4494L81.1751 39.7788ZM89.6967 38.7259L89.9824 42.4387L93.4205 42.1742V38.7259H89.6967ZM113.536 39.9333L112.874 43.5977L115.404 44.0552L116.728 41.8514L113.536 39.9333ZM104.592 38.7621H100.868V42.1935L104.288 42.4735L104.592 38.7621ZM73.6171 41.3984L74.5493 45.0037L78.8948 43.8801L76.9883 39.8167L73.6171 41.3984ZM121.078 41.6259L117.722 40.0118L115.777 44.0564L120.111 45.222L121.078 41.6259ZM81.8023 43.4494C84.4893 42.9903 87.2178 42.6515 89.9824 42.4387L89.411 35.013C86.4169 35.2434 83.4605 35.6105 80.548 36.1082L81.8023 43.4494ZM74.8675 30.2582C74.8675 34.4138 75.9958 38.3171 77.9651 41.6663L84.3852 37.8913C83.0703 35.6551 82.3152 33.0505 82.3152 30.2582H74.8675ZM97.4018 7.724C84.9565 7.724 74.8675 17.8129 74.8675 30.2582H82.3152C82.3152 21.9261 89.0697 15.1716 97.4018 15.1716V7.724ZM119.936 30.2582C119.936 17.8129 109.847 7.724 97.4018 7.724V15.1716C105.734 15.1716 112.488 21.9261 112.488 30.2582H119.936ZM116.728 41.8514C118.765 38.4615 119.936 34.4909 119.936 30.2582H112.488C112.488 33.102 111.705 35.7514 110.344 38.0152L116.728 41.8514ZM104.288 42.4735C107.192 42.7113 110.056 43.0883 112.874 43.5977L114.199 36.2689C111.145 35.7167 108.041 35.3082 104.896 35.0507L104.288 42.4735ZM100.868 35.1729V38.7621H108.316V35.1729H100.868ZM103.661 37.9657C102.118 37.9657 100.868 36.7153 100.868 35.1729H108.316C108.316 32.6021 106.232 30.5181 103.661 30.5181V37.9657ZM90.6276 37.9657H103.661V30.5181H90.6276V37.9657ZM93.4205 35.1729C93.4205 36.7153 92.1701 37.9657 90.6276 37.9657V30.5181C88.0569 30.5181 85.9729 32.6021 85.9729 35.1729H93.4205ZM93.4205 38.7259V35.1729H85.9729V38.7259H93.4205ZM76.9883 39.8167C75.629 36.9195 74.8675 33.6829 74.8675 30.2582H67.4199C67.4199 34.7989 68.4318 39.1136 70.2459 42.9801L76.9883 39.8167ZM7.84021 131.249C7.84021 89.7827 36.1777 54.9254 74.5493 45.0037L72.6849 37.7932C31.1068 48.544 0.392578 86.305 0.392578 131.249H7.84021ZM96.9164 220.325C47.721 220.325 7.84021 180.444 7.84021 131.249H0.392578C0.392578 184.558 43.6078 227.773 96.9164 227.773V220.325ZM185.992 131.249C185.992 180.444 146.112 220.325 96.9164 220.325V227.773C150.225 227.773 193.44 184.558 193.44 131.249H185.992ZM120.111 45.222C158.062 55.4281 185.992 90.0817 185.992 131.249H193.44C193.44 86.6288 163.167 49.0886 122.045 38.0299L120.111 45.222ZM119.936 30.2582C119.936 33.7598 119.14 37.0649 117.722 40.0118L124.434 43.2401C126.325 39.3076 127.383 34.9012 127.383 30.2582H119.936ZM97.4018 7.724C109.847 7.724 119.936 17.8129 119.936 30.2582H127.383C127.383 13.6997 113.96 0.276367 97.4018 0.276367V7.724ZM74.8675 30.2582C74.8675 17.8129 84.9565 7.724 97.4018 7.724V0.276367C80.8432 0.276367 67.4199 13.6997 67.4199 30.2582H74.8675Z" fill="#3C5159"/>
</g>
<path d="M97.0768 205.805C138.163 205.805 171.47 172.498 171.47 131.412C171.47 90.3255 138.163 57.0186 97.0768 57.0186C55.9906 57.0186 22.6836 90.3255 22.6836 131.412C22.6836 172.498 55.9906 205.805 97.0768 205.805Z" fill="#FF4D82" stroke="#3C5159" stroke-width="0.465477"/>
<path d="M96.9789 207.636C138.764 207.636 172.638 173.762 172.638 131.977C172.638 90.1919 138.764 56.3184 96.9789 56.3184C55.1938 56.3184 21.3203 90.1919 21.3203 131.977C21.3203 173.762 55.1938 207.636 96.9789 207.636Z" stroke="url(#paint1_linear_3194_4938)" stroke-width="10.6107"/>
<mask id="mask1_3194_4938" style="mask-type:alpha" maskUnits="userSpaceOnUse" x="50" y="84" width="106" height="106">
<path opacity="0.5" d="M154.358 85.4585L51.9531 187.863" stroke="#FBFCF1" stroke-width="3.72382"/>
</mask>
<g mask="url(#mask1_3194_4938)">
<path d="M97.2108 202.351C136.029 202.351 167.498 170.883 167.498 132.064C167.498 93.2459 136.029 61.7773 97.2108 61.7773C58.3924 61.7773 26.9238 93.2459 26.9238 132.064C26.9238 170.883 58.3924 202.351 97.2108 202.351Z" fill="#FBFCF1"/>
</g>
<mask id="mask2_3194_4938" style="mask-type:alpha" maskUnits="userSpaceOnUse" x="58" y="94" width="113" height="115">
<path opacity="0.5" d="M165.531 99.6553L64.0566 202.991" stroke="#FBFCF1" stroke-width="14.8953"/>
</mask>
<g mask="url(#mask2_3194_4938)">
<path d="M97.2108 202.293C136.029 202.293 167.498 170.824 167.498 132.006C167.498 93.1873 136.029 61.7188 97.2108 61.7188C58.3924 61.7188 26.9238 93.1873 26.9238 132.006C26.9238 170.824 58.3924 202.293 97.2108 202.293Z" fill="#FBFCF1"/>
</g>
</g>
<defs>
<linearGradient id="paint0_linear_3194_4938" x1="-7.52128" y1="51.4786" x2="400.004" y2="311.68" gradientUnits="userSpaceOnUse">
<stop stop-color="#FFC04A"/>
<stop offset="1" stop-color="#99732C"/>
</linearGradient>
<linearGradient id="paint1_linear_3194_4938" x1="5.86233" y1="62.3811" x2="361.41" y2="289.396" gradientUnits="userSpaceOnUse">
<stop stop-color="#FFC04A"/>
<stop offset="1" stop-color="#99732C"/>
</linearGradient>
<clipPath id="clip0_3194_4938">
<rect width="194" height="228" fill="white"/>
</clipPath>
</defs>
</svg>
