<svg width="197" height="202" viewBox="0 0 197 202" fill="none" xmlns="http://www.w3.org/2000/svg">
<path d="M104.766 8.64544C101.778 3.46969 94.3072 3.46968 91.319 8.64544L12.9305 144.418C9.94227 149.594 13.6775 156.064 19.654 156.064H176.431C182.407 156.064 186.143 149.594 183.154 144.418L104.766 8.64544Z" fill="#FFC04A" stroke="#232F33" stroke-width="8"/>
<path d="M102.724 41.6454C100.506 37.803 94.96 37.803 92.7416 41.6454L42.3339 128.954C40.1155 132.797 42.8885 137.6 47.3253 137.6H148.141C152.578 137.6 155.351 132.797 153.132 128.954L102.724 41.6454Z" fill="#FFC04A" stroke="#232F33" stroke-width="4"/>
<mask id="path-3-outside-1_2276_5436" maskUnits="userSpaceOnUse" x="80.9932" y="62.0751" width="29.1511" height="72.353" fill="black">
<rect fill="white" x="80.9932" y="62.0751" width="29.1511" height="72.353"/>
<path d="M104.275 69.9541L98.6809 113.509C98.5923 114.158 98.1973 114.461 97.4959 114.42L90.216 113.838C89.5176 113.746 89.1877 113.375 89.2262 112.724L90.6523 68.243C90.6701 67.9424 90.7586 67.7214 90.9178 67.58C91.13 67.3915 91.3864 67.3061 91.687 67.3239L103.365 68.7691C104.063 68.8607 104.367 69.2557 104.275 69.9541ZM99.4909 122.757C99.3931 124.41 98.6839 125.776 97.3633 126.854C96.0928 127.935 94.5809 128.423 92.8276 128.32C91.0742 128.216 89.6055 127.551 88.4213 126.324C87.2872 125.101 86.769 123.663 86.8669 122.01C86.9618 120.407 87.6444 119.065 88.9149 117.984C90.2385 116.855 91.7769 116.343 93.5302 116.447C95.2836 116.551 96.7258 117.239 97.8569 118.513C99.0411 119.739 99.5858 121.154 99.4909 122.757Z"/>
</mask>
<path d="M104.275 69.9541L98.6809 113.509C98.5923 114.158 98.1973 114.461 97.4959 114.42L90.216 113.838C89.5176 113.746 89.1877 113.375 89.2262 112.724L90.6523 68.243C90.6701 67.9424 90.7586 67.7214 90.9178 67.58C91.13 67.3915 91.3864 67.3061 91.687 67.3239L103.365 68.7691C104.063 68.8607 104.367 69.2557 104.275 69.9541ZM99.4909 122.757C99.3931 124.41 98.6839 125.776 97.3633 126.854C96.0928 127.935 94.5809 128.423 92.8276 128.32C91.0742 128.216 89.6055 127.551 88.4213 126.324C87.2872 125.101 86.769 123.663 86.8669 122.01C86.9618 120.407 87.6444 119.065 88.9149 117.984C90.2385 116.855 91.7769 116.343 93.5302 116.447C95.2836 116.551 96.7258 117.239 97.8569 118.513C99.0411 119.739 99.5858 121.154 99.4909 122.757Z" fill="#232F33"/>
<path d="M104.275 69.9541L99.682 69.3516L99.6804 69.364L104.275 69.9541ZM98.6809 113.509L103.27 114.137L103.273 114.118L103.275 114.099L98.6809 113.509ZM97.4959 114.42L97.127 119.037L97.1746 119.041L97.2223 119.044L97.4959 114.42ZM90.216 113.838L89.6135 118.431L89.73 118.446L89.847 118.455L90.216 113.838ZM89.2262 112.724L93.8504 112.997L93.8541 112.935L93.8561 112.872L89.2262 112.724ZM90.6523 68.243L86.0281 67.9693L86.0244 68.0319L86.0224 68.0945L90.6523 68.243ZM90.9178 67.58L93.994 71.0434L93.994 71.0433L90.9178 67.58ZM91.687 67.3239L92.2559 62.7267L92.1087 62.7085L91.9607 62.6997L91.687 67.3239ZM103.365 68.7691L103.967 64.1762L103.951 64.174L103.934 64.1719L103.365 68.7691ZM97.3633 126.854L94.4339 123.265L94.3973 123.295L94.3614 123.326L97.3633 126.854ZM88.4213 126.324L85.0242 129.474L85.0563 129.508L85.089 129.542L88.4213 126.324ZM88.9149 117.984L91.9168 121.512L91.9199 121.509L88.9149 117.984ZM97.8569 118.513L94.3936 121.589L94.4577 121.661L94.5247 121.731L97.8569 118.513ZM99.6804 69.364L94.0864 112.919L103.275 114.099L108.869 70.5442L99.6804 69.364ZM94.0913 112.882C94.1585 112.391 94.4519 111.352 95.4965 110.549C96.4862 109.789 97.4606 109.777 97.7696 109.795L97.2223 119.044C98.2327 119.104 99.7552 118.96 101.14 117.897C102.579 116.791 103.115 115.277 103.27 114.137L94.0913 112.882ZM97.8649 109.802L90.5849 109.22L89.847 118.455L97.127 119.037L97.8649 109.802ZM90.8184 109.245C91.1175 109.284 92.0756 109.477 92.9081 110.414C93.7908 111.408 93.8801 112.495 93.8504 112.997L84.6021 112.45C84.5338 113.603 84.7688 115.202 85.9815 116.567C87.1438 117.876 88.6161 118.3 89.6135 118.431L90.8184 109.245ZM93.8561 112.872L95.2822 68.3914L86.0224 68.0945L84.5963 112.575L93.8561 112.872ZM95.2765 68.5166C95.2521 68.9288 95.0773 70.0811 93.994 71.0434L87.8415 64.1167C86.4398 65.3617 86.0881 66.9559 86.0281 67.9693L95.2765 68.5166ZM93.994 71.0433C93.6552 71.3443 93.2294 71.6043 92.7325 71.7697C92.2412 71.9333 91.7842 71.9701 91.4133 71.9481L91.9607 62.6997C90.5162 62.6143 89.0323 63.059 87.8415 64.1167L93.994 71.0433ZM91.118 71.9211L102.796 73.3663L103.934 64.1719L92.2559 62.7267L91.118 71.9211ZM102.762 73.3621C102.404 73.315 101.303 73.0762 100.442 71.9558C99.5818 70.8353 99.635 69.7104 99.682 69.3516L108.868 70.5565C109.007 69.4994 108.954 67.8278 107.79 66.3124C106.626 64.7969 105.024 64.3149 103.967 64.1762L102.762 73.3621ZM94.8667 122.483C94.8479 122.801 94.7843 122.979 94.4339 123.265L100.293 130.442C102.583 128.572 103.938 126.019 104.115 123.031L94.8667 122.483ZM94.3614 123.326C94.0524 123.589 93.7319 123.733 93.1012 123.695L92.5539 132.944C95.4299 133.114 98.1332 132.281 100.365 130.382L94.3614 123.326ZM93.1012 123.695C92.4689 123.658 92.104 123.47 91.7535 123.107L85.089 129.542C87.1069 131.632 89.6795 132.774 92.5539 132.944L93.1012 123.695ZM91.8184 123.175C91.5356 122.87 91.4685 122.666 91.4911 122.283L82.2427 121.736C82.0696 124.66 83.0387 127.332 85.0242 129.474L91.8184 123.175ZM91.4911 122.283C91.5082 121.995 91.5661 121.81 91.9168 121.512L85.913 114.456C83.7228 116.319 82.4154 118.819 82.2427 121.736L91.4911 122.283ZM91.9199 121.509C92.3233 121.165 92.6837 121.037 93.2566 121.071L93.8039 111.823C90.8701 111.649 88.1536 112.546 85.91 114.458L91.9199 121.509ZM93.2566 121.071C93.8263 121.105 94.1064 121.266 94.3936 121.589L101.32 115.437C99.3452 113.213 96.7409 111.997 93.8039 111.823L93.2566 121.071ZM94.5247 121.731C94.8713 122.09 94.8799 122.26 94.8667 122.483L104.115 123.031C104.292 120.047 103.211 117.389 101.189 115.295L94.5247 121.731Z" fill="#232F33" mask="url(#path-3-outside-1_2276_5436)"/>
<mask id="path-5-outside-2_2276_5436" maskUnits="userSpaceOnUse" x="80.835" y="60.6063" width="29.1511" height="72.353" fill="black">
<rect fill="white" x="80.835" y="60.6063" width="29.1511" height="72.353"/>
<path d="M104.117 68.4853L98.5227 112.041C98.4341 112.689 98.0391 112.992 97.3377 112.951L90.0578 112.369C89.3594 112.278 89.0295 111.906 89.068 111.255L90.4941 66.7742C90.5119 66.4736 90.6004 66.2527 90.7596 66.1113C90.9718 65.9228 91.2282 65.8374 91.5288 65.8552L103.207 67.3004C103.905 67.392 104.208 67.787 104.117 68.4853ZM99.3327 121.288C99.2349 122.941 98.5257 124.307 97.2051 125.385C95.9346 126.466 94.4227 126.955 92.6694 126.851C90.916 126.747 89.4473 126.082 88.2631 124.856C87.129 123.632 86.6108 122.194 86.7087 120.541C86.8036 118.938 87.4862 117.596 88.7567 116.515C90.0803 115.387 91.6187 114.874 93.372 114.978C95.1254 115.082 96.5676 115.771 97.6987 117.044C98.8829 118.27 99.4276 119.685 99.3327 121.288Z"/>
</mask>
<path d="M104.117 68.4853L98.5227 112.041C98.4341 112.689 98.0391 112.992 97.3377 112.951L90.0578 112.369C89.3594 112.278 89.0295 111.906 89.068 111.255L90.4941 66.7742C90.5119 66.4736 90.6004 66.2527 90.7596 66.1113C90.9718 65.9228 91.2282 65.8374 91.5288 65.8552L103.207 67.3004C103.905 67.392 104.208 67.787 104.117 68.4853ZM99.3327 121.288C99.2349 122.941 98.5257 124.307 97.2051 125.385C95.9346 126.466 94.4227 126.955 92.6694 126.851C90.916 126.747 89.4473 126.082 88.2631 124.856C87.129 123.632 86.6108 122.194 86.7087 120.541C86.8036 118.938 87.4862 117.596 88.7567 116.515C90.0803 115.387 91.6187 114.874 93.372 114.978C95.1254 115.082 96.5676 115.771 97.6987 117.044C98.8829 118.27 99.4276 119.685 99.3327 121.288Z" fill="url(#paint0_linear_2276_5436)"/>
<path d="M104.117 68.4853L99.5238 67.8829L99.5222 67.8952L104.117 68.4853ZM98.5227 112.041L103.112 112.668L103.115 112.649L103.117 112.631L98.5227 112.041ZM97.3377 112.951L96.9688 117.568L97.0164 117.572L97.0641 117.575L97.3377 112.951ZM90.0578 112.369L89.4553 116.962L89.5718 116.977L89.6888 116.987L90.0578 112.369ZM89.068 111.255L93.6922 111.529L93.6959 111.466L93.6979 111.403L89.068 111.255ZM90.4941 66.7742L85.8699 66.5005L85.8662 66.5631L85.8642 66.6258L90.4941 66.7742ZM90.7596 66.1113L93.8358 69.5746L93.8358 69.5746L90.7596 66.1113ZM91.5288 65.8552L92.0977 61.258L91.9505 61.2398L91.8025 61.231L91.5288 65.8552ZM103.207 67.3004L103.809 62.7074L103.792 62.7053L103.776 62.7032L103.207 67.3004ZM97.2051 125.385L94.2757 121.797L94.2391 121.826L94.2032 121.857L97.2051 125.385ZM88.2631 124.856L84.866 128.005L84.8981 128.04L84.9308 128.074L88.2631 124.856ZM88.7567 116.515L91.7586 120.043L91.7617 120.04L88.7567 116.515ZM97.6987 117.044L94.2354 120.12L94.2995 120.192L94.3665 120.262L97.6987 117.044ZM99.5222 67.8952L93.9282 111.451L103.117 112.631L108.711 69.0754L99.5222 67.8952ZM93.9331 111.413C94.0003 110.922 94.2937 109.883 95.3383 109.081C96.328 108.321 97.3024 108.308 97.6114 108.327L97.0641 117.575C98.0745 117.635 99.597 117.492 100.982 116.428C102.421 115.322 102.956 113.808 103.112 112.668L93.9331 111.413ZM97.7067 108.333L90.4267 107.752L89.6888 116.987L96.9688 117.568L97.7067 108.333ZM90.6602 107.776C90.9593 107.815 91.9174 108.008 92.7499 108.946C93.6326 109.939 93.7219 111.027 93.6922 111.529L84.4439 110.981C84.3756 112.134 84.6106 113.733 85.8232 115.098C86.9856 116.407 88.4579 116.831 89.4553 116.962L90.6602 107.776ZM93.6979 111.403L95.124 66.9227L85.8642 66.6258L84.4381 111.106L93.6979 111.403ZM95.1183 67.0479C95.0939 67.4601 94.9191 68.6123 93.8358 69.5746L87.6833 62.6479C86.2816 63.893 85.9299 65.4872 85.8699 66.5005L95.1183 67.0479ZM93.8358 69.5746C93.497 69.8755 93.0712 70.1355 92.5743 70.3009C92.083 70.4645 91.626 70.5013 91.2551 70.4794L91.8025 61.231C90.358 61.1455 88.8741 61.5902 87.6833 62.648L93.8358 69.5746ZM90.9598 70.4524L102.638 71.8976L103.776 62.7032L92.0977 61.258L90.9598 70.4524ZM102.604 71.8933C102.245 71.8463 101.145 71.6075 100.284 70.487C99.4236 69.3666 99.4768 68.2417 99.5238 67.8829L108.71 69.0878C108.848 68.0306 108.796 66.3591 107.632 64.8436C106.468 63.3282 104.866 62.8461 103.809 62.7074L102.604 71.8933ZM94.7085 121.014C94.6897 121.332 94.6261 121.51 94.2757 121.797L100.135 128.973C102.425 127.103 103.78 124.551 103.957 121.562L94.7085 121.014ZM94.2032 121.857C93.8942 122.12 93.5737 122.264 92.943 122.227L92.3957 131.475C95.2717 131.645 97.975 130.812 100.207 128.913L94.2032 121.857ZM92.943 122.227C92.3107 122.189 91.9458 122.001 91.5953 121.638L84.9308 128.074C86.9487 130.163 89.5213 131.305 92.3957 131.475L92.943 122.227ZM91.6602 121.706C91.3774 121.401 91.3102 121.197 91.3329 120.815L82.0845 120.267C81.9114 123.191 82.8805 125.863 84.866 128.005L91.6602 121.706ZM91.3329 120.815C91.3499 120.526 91.4079 120.341 91.7586 120.043L85.7548 112.987C83.5646 114.851 82.2572 117.35 82.0845 120.267L91.3329 120.815ZM91.7617 120.04C92.1651 119.696 92.5255 119.569 93.0984 119.602L93.6457 110.354C90.7119 110.18 87.9954 111.077 85.7518 112.989L91.7617 120.04ZM93.0984 119.602C93.6681 119.636 93.9482 119.797 94.2354 120.12L101.162 113.968C99.187 111.744 96.5827 110.528 93.6457 110.354L93.0984 119.602ZM94.3665 120.262C94.7131 120.621 94.7217 120.792 94.7085 121.014L103.957 121.562C104.133 118.579 103.053 115.92 101.031 113.826L94.3665 120.262Z" fill="#232F33" mask="url(#path-5-outside-2_2276_5436)"/>
<defs>
<linearGradient id="paint0_linear_2276_5436" x1="95.8947" y1="61.5321" x2="92.0724" y2="126.116" gradientUnits="userSpaceOnUse">
<stop offset="0.355148" stop-color="#FBFCF1"/>
<stop offset="1" stop-color="#FFE0A7"/>
</linearGradient>
</defs>
</svg>
