<svg width="198" height="202" viewBox="0 0 198 202" fill="none" xmlns="http://www.w3.org/2000/svg">
<path d="M105.766 8.64544C102.778 3.46969 95.3072 3.46968 92.319 8.64544L13.9305 144.418C10.9423 149.594 14.6775 156.064 20.654 156.064H177.431C183.407 156.064 187.143 149.594 184.154 144.418L105.766 8.64544Z" fill="#FFC04A" stroke="#232F33" stroke-width="8"/>
<mask id="mask0_2276_5447" style="mask-type:alpha" maskUnits="userSpaceOnUse" x="16" y="7" width="166" height="146">
<path d="M95.7088 9.70056C97.1715 7.16697 100.828 7.16698 102.291 9.70057L181.445 146.799C182.908 149.333 181.08 152.5 178.154 152.5H19.8459C16.9204 152.5 15.0919 149.333 16.5547 146.799L95.7088 9.70056Z" fill="#FFC04A"/>
</mask>
<g mask="url(#mask0_2276_5447)">
<rect x="-1" y="213" width="216.633" height="199" transform="rotate(-90 -1 213)" fill="#FF4D82"/>
</g>
<path d="M103.724 41.6454C101.506 37.803 95.96 37.803 93.7416 41.6454L43.3339 128.954C41.1155 132.797 43.8885 137.6 48.3253 137.6H149.141C153.578 137.6 156.351 132.797 154.132 128.954L103.724 41.6454Z" fill="#FFC04A" stroke="#232F33" stroke-width="4"/>
<mask id="path-5-outside-1_2276_5447" maskUnits="userSpaceOnUse" x="81.9932" y="62.0751" width="29.1511" height="72.353" fill="black">
<rect fill="white" x="81.9932" y="62.0751" width="29.1511" height="72.353"/>
<path d="M105.275 69.9541L99.6809 113.509C99.5923 114.158 99.1973 114.461 98.4959 114.42L91.216 113.838C90.5176 113.746 90.1877 113.375 90.2262 112.724L91.6523 68.243C91.6701 67.9424 91.7586 67.7214 91.9178 67.58C92.13 67.3915 92.3864 67.3061 92.687 67.3239L104.365 68.7691C105.063 68.8607 105.367 69.2557 105.275 69.9541ZM100.491 122.757C100.393 124.41 99.6839 125.776 98.3633 126.854C97.0928 127.935 95.5809 128.423 93.8276 128.32C92.0742 128.216 90.6055 127.551 89.4213 126.324C88.2872 125.101 87.769 123.663 87.8669 122.01C87.9618 120.407 88.6444 119.065 89.9149 117.984C91.2385 116.855 92.7769 116.343 94.5302 116.447C96.2836 116.551 97.7258 117.239 98.8569 118.513C100.041 119.739 100.586 121.154 100.491 122.757Z"/>
</mask>
<path d="M105.275 69.9541L99.6809 113.509C99.5923 114.158 99.1973 114.461 98.4959 114.42L91.216 113.838C90.5176 113.746 90.1877 113.375 90.2262 112.724L91.6523 68.243C91.6701 67.9424 91.7586 67.7214 91.9178 67.58C92.13 67.3915 92.3864 67.3061 92.687 67.3239L104.365 68.7691C105.063 68.8607 105.367 69.2557 105.275 69.9541ZM100.491 122.757C100.393 124.41 99.6839 125.776 98.3633 126.854C97.0928 127.935 95.5809 128.423 93.8276 128.32C92.0742 128.216 90.6055 127.551 89.4213 126.324C88.2872 125.101 87.769 123.663 87.8669 122.01C87.9618 120.407 88.6444 119.065 89.9149 117.984C91.2385 116.855 92.7769 116.343 94.5302 116.447C96.2836 116.551 97.7258 117.239 98.8569 118.513C100.041 119.739 100.586 121.154 100.491 122.757Z" fill="#232F33"/>
<path d="M105.275 69.9541L100.682 69.3516L100.68 69.364L105.275 69.9541ZM99.6809 113.509L104.27 114.137L104.273 114.118L104.275 114.099L99.6809 113.509ZM98.4959 114.42L98.127 119.037L98.1746 119.041L98.2223 119.044L98.4959 114.42ZM91.216 113.838L90.6135 118.431L90.73 118.446L90.847 118.455L91.216 113.838ZM90.2262 112.724L94.8504 112.997L94.8541 112.935L94.8561 112.872L90.2262 112.724ZM91.6523 68.243L87.0281 67.9693L87.0244 68.0319L87.0224 68.0945L91.6523 68.243ZM91.9178 67.58L94.994 71.0434L94.994 71.0433L91.9178 67.58ZM92.687 67.3239L93.2559 62.7267L93.1087 62.7085L92.9607 62.6997L92.687 67.3239ZM104.365 68.7691L104.967 64.1762L104.951 64.174L104.934 64.1719L104.365 68.7691ZM98.3633 126.854L95.4339 123.265L95.3973 123.295L95.3614 123.326L98.3633 126.854ZM89.4213 126.324L86.0242 129.474L86.0563 129.508L86.089 129.542L89.4213 126.324ZM89.9149 117.984L92.9168 121.512L92.9199 121.509L89.9149 117.984ZM98.8569 118.513L95.3936 121.589L95.4577 121.661L95.5247 121.731L98.8569 118.513ZM100.68 69.364L95.0864 112.919L104.275 114.099L109.869 70.5442L100.68 69.364ZM95.0913 112.882C95.1585 112.391 95.4519 111.352 96.4965 110.549C97.4862 109.789 98.4606 109.777 98.7696 109.795L98.2223 119.044C99.2327 119.104 100.755 118.96 102.14 117.897C103.579 116.791 104.115 115.277 104.27 114.137L95.0913 112.882ZM98.8649 109.802L91.5849 109.22L90.847 118.455L98.127 119.037L98.8649 109.802ZM91.8184 109.245C92.1175 109.284 93.0756 109.477 93.9081 110.414C94.7908 111.408 94.8801 112.495 94.8504 112.997L85.6021 112.45C85.5338 113.603 85.7688 115.202 86.9815 116.567C88.1438 117.876 89.6161 118.3 90.6135 118.431L91.8184 109.245ZM94.8561 112.872L96.2822 68.3914L87.0224 68.0945L85.5963 112.575L94.8561 112.872ZM96.2765 68.5166C96.2521 68.9288 96.0773 70.0811 94.994 71.0434L88.8415 64.1167C87.4398 65.3617 87.0881 66.9559 87.0281 67.9693L96.2765 68.5166ZM94.994 71.0433C94.6552 71.3443 94.2294 71.6043 93.7325 71.7697C93.2412 71.9333 92.7842 71.9701 92.4133 71.9481L92.9607 62.6997C91.5162 62.6143 90.0323 63.059 88.8415 64.1167L94.994 71.0433ZM92.118 71.9211L103.796 73.3663L104.934 64.1719L93.2559 62.7267L92.118 71.9211ZM103.762 73.3621C103.404 73.315 102.303 73.0762 101.442 71.9558C100.582 70.8353 100.635 69.7104 100.682 69.3516L109.868 70.5565C110.007 69.4994 109.954 67.8278 108.79 66.3124C107.626 64.7969 106.024 64.3149 104.967 64.1762L103.762 73.3621ZM95.8667 122.483C95.8479 122.801 95.7843 122.979 95.4339 123.265L101.293 130.442C103.583 128.572 104.938 126.019 105.115 123.031L95.8667 122.483ZM95.3614 123.326C95.0524 123.589 94.7319 123.733 94.1012 123.695L93.5539 132.944C96.4299 133.114 99.1332 132.281 101.365 130.382L95.3614 123.326ZM94.1012 123.695C93.4689 123.658 93.104 123.47 92.7535 123.107L86.089 129.542C88.1069 131.632 90.6795 132.774 93.5539 132.944L94.1012 123.695ZM92.8184 123.175C92.5356 122.87 92.4685 122.666 92.4911 122.283L83.2427 121.736C83.0696 124.66 84.0387 127.332 86.0242 129.474L92.8184 123.175ZM92.4911 122.283C92.5082 121.995 92.5661 121.81 92.9168 121.512L86.913 114.456C84.7228 116.319 83.4154 118.819 83.2427 121.736L92.4911 122.283ZM92.9199 121.509C93.3233 121.165 93.6837 121.037 94.2566 121.071L94.8039 111.823C91.8701 111.649 89.1536 112.546 86.91 114.458L92.9199 121.509ZM94.2566 121.071C94.8263 121.105 95.1064 121.266 95.3936 121.589L102.32 115.437C100.345 113.213 97.7409 111.997 94.8039 111.823L94.2566 121.071ZM95.5247 121.731C95.8713 122.09 95.8799 122.26 95.8667 122.483L105.115 123.031C105.292 120.047 104.211 117.389 102.189 115.295L95.5247 121.731Z" fill="#232F33" mask="url(#path-5-outside-1_2276_5447)"/>
<mask id="path-7-outside-2_2276_5447" maskUnits="userSpaceOnUse" x="81.835" y="60.6063" width="29.1511" height="72.353" fill="black">
<rect fill="white" x="81.835" y="60.6063" width="29.1511" height="72.353"/>
<path d="M105.117 68.4853L99.5227 112.041C99.4341 112.689 99.0391 112.992 98.3377 112.951L91.0578 112.369C90.3594 112.278 90.0295 111.906 90.068 111.255L91.4941 66.7742C91.5119 66.4736 91.6004 66.2527 91.7596 66.1113C91.9718 65.9228 92.2282 65.8374 92.5288 65.8552L104.207 67.3004C104.905 67.392 105.208 67.787 105.117 68.4853ZM100.333 121.288C100.235 122.941 99.5257 124.307 98.2051 125.385C96.9346 126.466 95.4227 126.955 93.6694 126.851C91.916 126.747 90.4473 126.082 89.2631 124.856C88.129 123.632 87.6108 122.194 87.7087 120.541C87.8036 118.938 88.4862 117.596 89.7567 116.515C91.0803 115.387 92.6187 114.874 94.372 114.978C96.1254 115.082 97.5676 115.771 98.6987 117.044C99.8829 118.27 100.428 119.685 100.333 121.288Z"/>
</mask>
<path d="M105.117 68.4853L99.5227 112.041C99.4341 112.689 99.0391 112.992 98.3377 112.951L91.0578 112.369C90.3594 112.278 90.0295 111.906 90.068 111.255L91.4941 66.7742C91.5119 66.4736 91.6004 66.2527 91.7596 66.1113C91.9718 65.9228 92.2282 65.8374 92.5288 65.8552L104.207 67.3004C104.905 67.392 105.208 67.787 105.117 68.4853ZM100.333 121.288C100.235 122.941 99.5257 124.307 98.2051 125.385C96.9346 126.466 95.4227 126.955 93.6694 126.851C91.916 126.747 90.4473 126.082 89.2631 124.856C88.129 123.632 87.6108 122.194 87.7087 120.541C87.8036 118.938 88.4862 117.596 89.7567 116.515C91.0803 115.387 92.6187 114.874 94.372 114.978C96.1254 115.082 97.5676 115.771 98.6987 117.044C99.8829 118.27 100.428 119.685 100.333 121.288Z" fill="url(#paint0_linear_2276_5447)"/>
<path d="M105.117 68.4853L100.524 67.8829L100.522 67.8952L105.117 68.4853ZM99.5227 112.041L104.112 112.668L104.115 112.649L104.117 112.631L99.5227 112.041ZM98.3377 112.951L97.9688 117.568L98.0164 117.572L98.0641 117.575L98.3377 112.951ZM91.0578 112.369L90.4553 116.962L90.5718 116.977L90.6888 116.987L91.0578 112.369ZM90.068 111.255L94.6922 111.529L94.6959 111.466L94.6979 111.403L90.068 111.255ZM91.4941 66.7742L86.8699 66.5005L86.8662 66.5631L86.8642 66.6258L91.4941 66.7742ZM91.7596 66.1113L94.8358 69.5746L94.8358 69.5746L91.7596 66.1113ZM92.5288 65.8552L93.0977 61.258L92.9505 61.2398L92.8025 61.231L92.5288 65.8552ZM104.207 67.3004L104.809 62.7074L104.792 62.7053L104.776 62.7032L104.207 67.3004ZM98.2051 125.385L95.2757 121.797L95.2391 121.826L95.2032 121.857L98.2051 125.385ZM89.2631 124.856L85.866 128.005L85.8981 128.04L85.9308 128.074L89.2631 124.856ZM89.7567 116.515L92.7586 120.043L92.7617 120.04L89.7567 116.515ZM98.6987 117.044L95.2354 120.12L95.2995 120.192L95.3665 120.262L98.6987 117.044ZM100.522 67.8952L94.9282 111.451L104.117 112.631L109.711 69.0754L100.522 67.8952ZM94.9331 111.413C95.0003 110.922 95.2937 109.883 96.3383 109.081C97.328 108.321 98.3024 108.308 98.6114 108.327L98.0641 117.575C99.0745 117.635 100.597 117.492 101.982 116.428C103.421 115.322 103.956 113.808 104.112 112.668L94.9331 111.413ZM98.7067 108.333L91.4267 107.752L90.6888 116.987L97.9688 117.568L98.7067 108.333ZM91.6602 107.776C91.9593 107.815 92.9174 108.008 93.7499 108.946C94.6326 109.939 94.7219 111.027 94.6922 111.529L85.4439 110.981C85.3756 112.134 85.6106 113.733 86.8232 115.098C87.9856 116.407 89.4579 116.831 90.4553 116.962L91.6602 107.776ZM94.6979 111.403L96.124 66.9227L86.8642 66.6258L85.4381 111.106L94.6979 111.403ZM96.1183 67.0479C96.0939 67.4601 95.9191 68.6123 94.8358 69.5746L88.6833 62.6479C87.2816 63.893 86.9299 65.4872 86.8699 66.5005L96.1183 67.0479ZM94.8358 69.5746C94.497 69.8755 94.0712 70.1355 93.5743 70.3009C93.083 70.4645 92.626 70.5013 92.2551 70.4794L92.8025 61.231C91.358 61.1455 89.8741 61.5902 88.6833 62.648L94.8358 69.5746ZM91.9598 70.4524L103.638 71.8976L104.776 62.7032L93.0977 61.258L91.9598 70.4524ZM103.604 71.8933C103.245 71.8463 102.145 71.6075 101.284 70.487C100.424 69.3666 100.477 68.2417 100.524 67.8829L109.71 69.0878C109.848 68.0306 109.796 66.3591 108.632 64.8436C107.468 63.3282 105.866 62.8461 104.809 62.7074L103.604 71.8933ZM95.7085 121.014C95.6897 121.332 95.6261 121.51 95.2757 121.797L101.135 128.973C103.425 127.103 104.78 124.551 104.957 121.562L95.7085 121.014ZM95.2032 121.857C94.8942 122.12 94.5737 122.264 93.943 122.227L93.3957 131.475C96.2717 131.645 98.975 130.812 101.207 128.913L95.2032 121.857ZM93.943 122.227C93.3107 122.189 92.9458 122.001 92.5953 121.638L85.9308 128.074C87.9487 130.163 90.5213 131.305 93.3957 131.475L93.943 122.227ZM92.6602 121.706C92.3774 121.401 92.3102 121.197 92.3329 120.815L83.0845 120.267C82.9114 123.191 83.8805 125.863 85.866 128.005L92.6602 121.706ZM92.3329 120.815C92.3499 120.526 92.4079 120.341 92.7586 120.043L86.7548 112.987C84.5646 114.851 83.2572 117.35 83.0845 120.267L92.3329 120.815ZM92.7617 120.04C93.1651 119.696 93.5255 119.569 94.0984 119.602L94.6457 110.354C91.7119 110.18 88.9954 111.077 86.7518 112.989L92.7617 120.04ZM94.0984 119.602C94.6681 119.636 94.9482 119.797 95.2354 120.12L102.162 113.968C100.187 111.744 97.5827 110.528 94.6457 110.354L94.0984 119.602ZM95.3665 120.262C95.7131 120.621 95.7217 120.792 95.7085 121.014L104.957 121.562C105.133 118.579 104.053 115.92 102.031 113.826L95.3665 120.262Z" fill="#232F33" mask="url(#path-7-outside-2_2276_5447)"/>
<defs>
<linearGradient id="paint0_linear_2276_5447" x1="96.8947" y1="61.5321" x2="93.0724" y2="126.116" gradientUnits="userSpaceOnUse">
<stop offset="0.355148" stop-color="#FBFCF1"/>
<stop offset="1" stop-color="#FFE0A7"/>
</linearGradient>
</defs>
</svg>
