# Blender 4.1.0
# www.blender.org
mtllib ui-planks.mtl
o Plane.003
v -1.994577 0.082444 2.094781
v -1.875729 0.090399 2.254665
v -1.894376 -0.126019 -2.095476
v -1.782107 -0.130036 -2.176207
v -1.297315 -0.124363 -2.062179
v -0.811672 -0.130671 -2.188971
v -0.571152 0.078696 2.019441
v -0.650996 0.084618 2.138464
v -0.941174 0.080029 2.046222
v -1.142571 0.095454 2.356275
v -1.725310 0.087104 2.188454
v -0.711992 -0.023315 -0.031061
v 0.648633 0.080127 2.048208
v 0.792358 0.088940 2.225341
v 0.763096 -0.128066 -2.136609
v 0.893964 -0.131422 -2.204071
v 1.396027 -0.125287 -2.080755
v 1.847129 -0.130803 -2.191625
v 2.073485 0.077703 1.999469
v 2.009125 0.083801 2.122054
v 1.723125 0.078805 2.021627
v 1.518887 0.094842 2.343978
v 0.950354 0.086022 2.166697
v 1.956040 -0.025023 -0.065380
v 0.708031 -0.023956 -0.043930
v -0.726805 0.129003 -2.205585
v -0.504968 0.132166 -2.267250
v -0.478794 -0.088018 2.025188
v -0.346253 -0.096433 2.189243
v -0.067295 -0.091611 2.095234
v 0.382420 -0.098689 2.233216
v 0.663523 0.128735 -2.200363
v 0.545533 -0.089651 2.057029
v 0.366468 0.127173 -2.169909
v 0.248077 0.136278 -2.347404
v -0.257119 0.124427 -2.116379
v 0.604411 0.019867 -0.078003
v -0.616684 0.016479 -0.011958
v -1.944477 -0.021787 -0.000347
v -0.805484 -0.124007 -2.055025
v -1.727880 0.081561 2.077023
v -1.198928 0.092162 2.290118
v -0.954455 0.078469 2.014870
v -0.141932 -0.086771 2.000886
v 0.098203 -0.090286 2.069408
v 0.109396 -0.094392 2.149446
v 0.933846 0.080028 2.046219
v 1.450096 0.090927 2.265280
v 1.697234 0.076506 1.975408
v -1.299058 -0.119420 -1.962826
v 1.855260 -0.122905 -2.032883
v 1.395242 -0.119175 -1.957909
v -0.260589 0.115451 -1.941391
v 0.658712 0.119875 -2.027633
v 0.361699 0.118998 -2.010532
v 0.221232 0.122982 -2.088214
v -1.556759 -0.127399 -2.123203
v -1.600143 -0.121712 -2.008896
v -1.054493 -0.127517 -2.125575
v -1.029945 -0.120817 -1.990900
v -1.308392 -0.019839 0.038816
v -1.632957 -0.020056 0.034452
v -1.002906 -0.021002 0.015438
v 0.286088 -0.097172 2.203659
v 0.338338 -0.093801 2.137931
v 0.107587 0.016445 -0.011282
v -0.262359 0.016216 -0.006824
v 0.333062 0.017105 -0.024149
v 1.144996 -0.128354 -2.142413
v 1.079169 -0.123620 -2.047259
v 1.621578 -0.128045 -2.136190
v 1.625251 -0.121040 -1.995396
v 1.355154 -0.021284 0.009780
v 1.028387 -0.021761 0.000178
v 1.659979 -0.022410 -0.012863
v -1.944477 -0.355726 0.016266
v -1.994577 -0.251494 2.111394
v -1.875729 -0.243540 2.271279
v -1.556759 -0.461337 -2.106590
v -1.782107 -0.463974 -2.159594
v -1.894376 -0.459958 -2.078862
v -1.054493 -0.461455 -2.108962
v -1.297315 -0.458301 -2.045566
v -0.805484 -0.457945 -2.038412
v -0.811672 -0.464609 -2.172358
v -0.650996 -0.249321 2.155077
v -0.571152 -0.255242 2.036055
v -0.941174 -0.253910 2.062835
v -1.142571 -0.238485 2.372889
v -1.725310 -0.246834 2.205067
v -0.711992 -0.357254 -0.014448
v 0.708031 -0.357894 -0.027317
v 0.648633 -0.253811 2.064821
v 0.792358 -0.244999 2.241954
v 1.144996 -0.462293 -2.125800
v 0.893964 -0.465360 -2.187458
v 0.763096 -0.462004 -2.119996
v 1.621578 -0.461983 -2.119577
v 1.396027 -0.459225 -2.064142
v 1.855260 -0.456844 -2.016270
v 1.847129 -0.464741 -2.175011
v 2.009125 -0.250137 2.138668
v 2.073485 -0.256236 2.016083
v 1.723125 -0.255133 2.038240
v 1.518887 -0.239097 2.360591
v 0.950354 -0.247916 2.183310
v 1.956040 -0.358961 -0.048767
v -0.616684 -0.317433 -0.029086
v -0.726805 -0.204909 -2.222713
v -0.504968 -0.201746 -2.284378
v 0.098203 -0.424198 2.052280
v 0.107587 -0.317468 -0.028410
v -0.346253 -0.430345 2.172115
v -0.478794 -0.421930 2.008059
v 0.109396 -0.428304 2.132318
v -0.067295 -0.425523 2.078105
v 0.545533 -0.423563 2.039901
v 0.382420 -0.432601 2.216087
v 0.604411 -0.314045 -0.095132
v 0.366468 -0.206739 -2.187038
v 0.663523 -0.205177 -2.217492
v 0.248077 -0.197635 -2.364532
v -0.257119 -0.209485 -2.133508
v 0.658712 -0.214037 -2.044762
v -1.727880 -0.252377 2.093636
v -1.198928 -0.241776 2.306731
v -0.954455 -0.255470 2.031484
v -0.141932 -0.420683 1.983757
v -0.262359 -0.317696 -0.023953
v 0.933846 -0.253910 2.062832
v 1.450096 -0.243012 2.281893
v 1.697234 -0.257433 1.992021
v -1.029945 -0.454755 -1.974286
v -1.299058 -0.453358 -1.946212
v -1.600143 -0.455650 -1.992283
v 1.625251 -0.454979 -1.978783
v 1.395242 -0.453114 -1.941296
v 1.079169 -0.457559 -2.030646
v 0.361699 -0.214915 -2.027661
v 0.221232 -0.210930 -2.105343
v -0.260589 -0.218461 -1.958519
v -1.632957 -0.353995 0.051065
v -1.002906 -0.354940 0.032051
v -1.308392 -0.353777 0.055429
v 0.286088 -0.431085 2.186530
v 0.338338 -0.427713 2.120802
v 0.333062 -0.316808 -0.041277
v 1.028387 -0.355700 0.016791
v 1.659979 -0.356348 0.003750
v 1.355154 -0.355222 0.026393
vn -0.0000 0.9988 -0.0497
vn -0.0000 0.9987 0.0512
vn -0.0000 -0.9988 0.0497
vn -0.0000 -0.9987 -0.0512
vn -0.3033 0.0473 0.9517
vn -0.4163 0.0466 -0.9080
vn -0.2937 -0.0490 0.9547
vn -0.2980 0.0474 0.9534
vn 0.3197 -0.0485 0.9463
vn -0.2529 -0.0481 -0.9663
vn 0.8389 0.0270 0.5436
vn 0.2388 -0.0483 -0.9699
vn 0.5205 0.0437 -0.8528
vn 0.9987 -0.0025 -0.0510
vn 0.3484 0.0466 0.9362
vn -0.2771 0.0477 0.9597
vn 0.9996 -0.0014 0.0278
vn 0.9984 -0.0028 -0.0566
vn 0.4033 0.0455 0.9139
vn -0.9977 -0.0035 0.0674
vn -0.9997 -0.0013 -0.0262
vn 0.9977 -0.0034 -0.0684
vn -0.2390 -0.0482 -0.9698
vn -0.9997 -0.0012 -0.0238
vn -0.9987 -0.0026 0.0500
vn -0.9996 -0.0014 -0.0283
vn 0.9989 -0.0023 -0.0460
vn -0.2681 0.0494 -0.9621
vn -0.7769 0.0313 0.6288
vn -0.8029 0.0296 0.5954
vn -0.7783 -0.0322 0.6271
vn -0.4586 -0.0442 -0.8875
vn 0.2292 -0.0484 -0.9722
vn -0.2937 -0.0490 0.9546
vn -0.5843 -0.0403 -0.8105
vn 0.7343 -0.0348 0.6780
vn 0.9996 -0.0014 0.0275
vn 0.8856 0.0231 0.4638
vn -0.1021 0.0510 -0.9935
vn -0.3317 0.0469 0.9422
vn 0.8308 0.0277 0.5559
vn 0.8323 0.0284 -0.5537
vn 0.8450 0.0266 0.5341
vt 0.386324 0.132891
vt 0.304680 0.133783
vt 0.307509 0.127670
vt 0.369318 0.109685
vt 0.252607 0.080116
vt 0.264611 0.067217
vt 0.139939 0.121664
vt 0.140487 0.099938
vt 0.108447 0.087029
vt 0.083132 0.118202
vt 0.572860 0.111910
vt 0.571740 0.532143
vt 0.523864 0.529642
vt 0.521871 0.125229
vt 0.686938 0.961003
vt 0.658961 0.947801
vt 0.726531 0.930316
vt 0.740604 0.948937
vt 0.524248 0.109672
vt 0.561765 0.099135
vt 0.925337 0.114432
vt 0.939096 0.138420
vt 0.858661 0.143129
vt 0.864196 0.134084
vt 0.805828 0.086404
vt 0.820534 0.071004
vt 0.695464 0.129272
vt 0.698993 0.105696
vt 0.665217 0.094220
vt 0.634491 0.128883
vt 0.283372 0.941068
vt 0.288601 0.914810
vt 0.336411 0.927313
vt 0.335093 0.953429
vt 0.176388 0.940606
vt 0.167148 0.918319
vt 0.231279 0.909336
vt 0.231650 0.928708
vt 0.842488 0.947719
vt 0.843273 0.920168
vt 0.892444 0.927503
vt 0.890706 0.958567
vt 0.794101 0.912832
vt 0.794269 0.936871
vt 0.393797 0.968123
vt 0.346693 0.956138
vt 0.445687 0.904788
vt 0.446424 0.938799
vt 0.547994 0.933325
vt 0.577820 0.918226
vt 0.578833 0.949204
vt 0.553695 0.983702
vt 0.641908 0.955123
vt 0.640887 0.921550
vt 0.128389 0.950941
vt 0.104475 0.935200
vt 0.160158 0.519916
vt 0.093804 0.526701
vt 0.229291 0.519065
vt 0.294360 0.523623
vt 0.356325 0.532690
vt 0.582220 0.093390
vt 0.616855 0.127635
vt 0.445311 0.528776
vt 0.470882 0.138547
vt 0.370076 0.529773
vt 0.399354 0.133823
vt 0.486730 0.120209
vt 0.629357 0.542610
vt 0.427497 0.101937
vt 0.647189 0.538289
vt 0.715675 0.529658
vt 0.785531 0.527779
vt 0.850697 0.532209
vt 0.913989 0.542486
vt 0.386324 0.129652
vt 0.369318 0.106446
vt 0.307509 0.124431
vt 0.304680 0.130543
vt 0.264611 0.063978
vt 0.252607 0.076877
vt 0.140487 0.096699
vt 0.139939 0.118425
vt 0.108447 0.083789
vt 0.083132 0.114963
vt 0.572860 0.115239
vt 0.521871 0.128558
vt 0.523864 0.532971
vt 0.571740 0.535472
vt 0.686938 0.957752
vt 0.740604 0.945686
vt 0.726531 0.927065
vt 0.658961 0.944550
vt 0.561765 0.102464
vt 0.524248 0.113001
vt 0.925337 0.111181
vt 0.864196 0.130833
vt 0.858661 0.139878
vt 0.939096 0.135169
vt 0.820534 0.067753
vt 0.805828 0.083153
vt 0.698993 0.102445
vt 0.695464 0.126021
vt 0.665217 0.090969
vt 0.634491 0.125632
vt 0.283372 0.937829
vt 0.335093 0.950190
vt 0.336411 0.924074
vt 0.288601 0.911571
vt 0.176388 0.937367
vt 0.231650 0.925469
vt 0.231279 0.906097
vt 0.167148 0.915080
vt 0.842488 0.944468
vt 0.890706 0.955316
vt 0.892444 0.924252
vt 0.843273 0.916916
vt 0.794269 0.933620
vt 0.794101 0.909581
vt 0.393797 0.971452
vt 0.446424 0.942129
vt 0.445687 0.908117
vt 0.346693 0.959467
vt 0.547994 0.936654
vt 0.553695 0.987032
vt 0.578833 0.952533
vt 0.577820 0.921556
vt 0.641908 0.958452
vt 0.640887 0.924879
vt 0.128389 0.947701
vt 0.104475 0.931961
vt 0.160158 0.516677
vt 0.093804 0.523462
vt 0.229291 0.515826
vt 0.294360 0.520384
vt 0.356325 0.529450
vt 0.616855 0.130964
vt 0.582220 0.096719
vt 0.445311 0.532105
vt 0.470882 0.141876
vt 0.370076 0.533103
vt 0.399354 0.137153
vt 0.486730 0.123538
vt 0.629357 0.545940
vt 0.427497 0.105266
vt 0.647189 0.535038
vt 0.715675 0.526406
vt 0.785531 0.524528
vt 0.850697 0.528958
vt 0.913989 0.539235
s 0
usemtl Material.001
f 7/1/1 43/2/1 9/3/1 8/4/1
f 9/3/1 43/2/1 42/5/1 10/6/1
f 10/6/1 42/5/1 41/7/1 11/8/1
f 2/9/1 11/8/1 41/7/1 1/10/1
f 65/11/2 68/12/2 66/13/2 45/14/2
f 16/15/1 15/16/1 70/17/1 69/18/1
f 45/14/2 46/19/2 64/20/2 65/11/2
f 20/21/1 19/22/1 49/23/1 21/24/1
f 21/24/1 49/23/1 48/25/1 22/26/1
f 22/26/1 48/25/1 47/27/1 23/28/1
f 14/29/1 23/28/1 47/27/1 13/30/1
f 59/31/1 60/32/1 40/33/1 6/34/1
f 57/35/1 58/36/1 50/37/1 5/38/1
f 71/39/1 72/40/1 51/41/1 18/42/1
f 69/18/1 70/17/1 52/43/1 17/44/1
f 27/45/2 26/46/2 53/47/2 36/48/2
f 56/49/2 55/50/2 34/51/2 35/52/2
f 32/53/2 34/51/2 55/50/2 54/54/2
f 35/52/2 36/48/2 53/47/2 56/49/2
f 4/55/1 3/56/1 58/36/1 57/35/1
f 5/38/1 50/37/1 60/32/1 59/31/1
f 62/57/1 39/58/1 1/10/1 41/7/1
f 58/36/1 3/56/1 39/58/1 62/57/1
f 61/59/1 62/57/1 41/7/1 42/5/1
f 50/37/1 58/36/1 62/57/1 61/59/1
f 63/60/1 61/59/1 42/5/1 43/2/1
f 60/32/1 50/37/1 61/59/1 63/60/1
f 12/61/1 63/60/1 43/2/1 7/1/1
f 40/33/1 60/32/1 63/60/1 12/61/1
f 65/11/2 64/20/2 31/62/2 33/63/2
f 67/64/2 44/65/2 45/14/2 66/13/2
f 67/64/2 53/47/2 26/46/2 38/66/2
f 44/65/2 67/64/2 38/66/2 28/67/2
f 53/47/2 67/64/2 66/13/2 56/49/2
f 44/65/2 30/68/2 46/19/2 45/14/2
f 56/49/2 66/13/2 68/12/2 55/50/2
f 68/12/2 65/11/2 33/63/2 37/69/2
f 55/50/2 68/12/2 37/69/2 54/54/2
f 29/70/2 30/68/2 44/65/2 28/67/2
f 17/44/1 52/43/1 72/40/1 71/39/1
f 25/71/1 13/30/1 47/27/1 74/72/1
f 15/16/1 25/71/1 74/72/1 70/17/1
f 74/72/1 47/27/1 48/25/1 73/73/1
f 70/17/1 74/72/1 73/73/1 52/43/1
f 73/73/1 48/25/1 49/23/1 75/74/1
f 52/43/1 73/73/1 75/74/1 72/40/1
f 19/22/1 24/75/1 75/74/1 49/23/1
f 24/75/1 51/41/1 72/40/1 75/74/1
f 87/76/3 86/77/3 88/78/3 127/79/3
f 88/78/3 89/80/3 126/81/3 127/79/3
f 89/80/3 90/82/3 125/83/3 126/81/3
f 78/84/3 77/85/3 125/83/3 90/82/3
f 146/86/4 111/87/4 112/88/4 147/89/4
f 96/90/3 95/91/3 138/92/3 97/93/3
f 111/87/4 146/86/4 145/94/4 115/95/4
f 102/96/3 104/97/3 132/98/3 103/99/3
f 104/97/3 105/100/3 131/101/3 132/98/3
f 105/100/3 106/102/3 130/103/3 131/101/3
f 94/104/3 93/105/3 130/103/3 106/102/3
f 82/106/3 85/107/3 84/108/3 133/109/3
f 79/110/3 83/111/3 134/112/3 135/113/3
f 98/114/3 101/115/3 100/116/3 136/117/3
f 95/91/3 99/118/3 137/119/3 138/92/3
f 110/120/4 123/121/4 141/122/4 109/123/4
f 140/124/4 122/125/4 120/126/4 139/127/4
f 121/128/4 124/129/4 139/127/4 120/126/4
f 122/125/4 140/124/4 141/122/4 123/121/4
f 80/130/3 79/110/3 135/113/3 81/131/3
f 83/111/3 82/106/3 133/109/3 134/112/3
f 142/132/3 125/83/3 77/85/3 76/133/3
f 135/113/3 142/132/3 76/133/3 81/131/3
f 144/134/3 126/81/3 125/83/3 142/132/3
f 134/112/3 144/134/3 142/132/3 135/113/3
f 143/135/3 127/79/3 126/81/3 144/134/3
f 133/109/3 143/135/3 144/134/3 134/112/3
f 91/136/3 87/76/3 127/79/3 143/135/3
f 84/108/3 91/136/3 143/135/3 133/109/3
f 146/86/4 117/137/4 118/138/4 145/94/4
f 129/139/4 112/88/4 111/87/4 128/140/4
f 129/139/4 108/141/4 109/123/4 141/122/4
f 128/140/4 114/142/4 108/141/4 129/139/4
f 141/122/4 140/124/4 112/88/4 129/139/4
f 128/140/4 111/87/4 115/95/4 116/143/4
f 140/124/4 139/127/4 147/89/4 112/88/4
f 147/89/4 119/144/4 117/137/4 146/86/4
f 139/127/4 124/129/4 119/144/4 147/89/4
f 113/145/4 114/142/4 128/140/4 116/143/4
f 99/118/3 98/114/3 136/117/3 137/119/3
f 92/146/3 148/147/3 130/103/3 93/105/3
f 97/93/3 138/92/3 148/147/3 92/146/3
f 148/147/3 150/148/3 131/101/3 130/103/3
f 138/92/3 137/119/3 150/148/3 148/147/3
f 150/148/3 149/149/3 132/98/3 131/101/3
f 137/119/3 136/117/3 149/149/3 150/148/3
f 103/99/3 132/98/3 149/149/3 107/150/3
f 107/150/3 149/149/3 136/117/3 100/116/3
f 9/3/5 88/78/5 86/77/5 8/4/5
f 36/48/6 35/52/6 122/125/6 123/121/6
f 31/62/7 64/20/7 145/94/7 118/138/7
f 22/26/8 23/28/8 106/102/8 105/100/8
f 30/68/9 29/70/9 113/145/9 116/143/9
f 6/34/10 85/107/10 82/106/10 59/31/10
f 10/6/11 89/80/11 88/78/11 9/3/11
f 17/44/12 99/118/12 95/91/12 69/18/12
f 27/45/13 36/48/13 123/121/13 110/120/13
f 24/75/14 107/150/14 100/116/14 51/41/14
f 23/28/15 14/29/15 94/104/15 106/102/15
f 11/8/16 90/82/16 89/80/16 10/6/16
f 54/54/17 37/69/17 119/144/17 124/129/17
f 24/75/18 19/22/18 103/99/18 107/150/18
f 2/9/19 78/84/19 90/82/19 11/8/19
f 28/67/20 38/66/20 108/141/20 114/142/20
f 25/71/21 15/16/21 97/93/21 92/146/21
f 7/1/22 87/76/22 91/136/22 12/61/22
f 18/42/23 101/115/23 98/114/23 71/39/23
f 3/56/24 81/131/24 76/133/24 39/58/24
f 38/66/25 26/46/25 109/123/25 108/141/25
f 13/30/26 25/71/26 92/146/26 93/105/26
f 12/61/27 91/136/27 84/108/27 40/33/27
f 54/54/17 124/129/17 121/128/17 32/53/17
f 26/46/28 27/45/28 110/120/28 109/123/28
f 14/29/29 13/30/29 93/105/29 94/104/29
f 39/58/24 76/133/24 77/85/24 1/10/24
f 69/18/12 95/91/12 96/90/12 16/15/12
f 1/10/30 77/85/30 78/84/30 2/9/30
f 29/70/31 28/67/31 114/142/31 113/145/31
f 16/15/32 96/90/32 97/93/32 15/16/32
f 57/35/33 79/110/33 80/130/33 4/55/33
f 46/19/34 30/68/34 116/143/34 115/95/34
f 71/39/23 98/114/23 99/118/23 17/44/23
f 4/55/35 80/130/35 81/131/35 3/56/35
f 64/20/34 46/19/34 115/95/34 145/94/34
f 33/63/36 31/62/36 118/138/36 117/137/36
f 51/41/14 100/116/14 101/115/14 18/42/14
f 59/31/10 82/106/10 83/111/10 5/38/10
f 37/69/37 33/63/37 117/137/37 119/144/37
f 19/22/38 20/21/38 102/96/38 103/99/38
f 5/38/33 83/111/33 79/110/33 57/35/33
f 40/33/27 84/108/27 85/107/27 6/34/27
f 32/53/39 121/128/39 120/126/39 34/51/39
f 20/21/40 21/24/40 104/97/40 102/96/40
f 8/4/41 86/77/41 87/76/41 7/1/41
f 34/51/42 120/126/42 122/125/42 35/52/42
f 21/24/43 22/26/43 105/100/43 104/97/43
